<svg width="2244" height="1349" viewBox="0 0 2244 1349" fill="none" xmlns="http://www.w3.org/2000/svg">
<g clip-path="url(#clip0)">
<path d="M593.735 635.053V1184.4L117.984 909.728L593.735 635.053Z" stroke="#EBEBEB"/>
<path d="M119.766 913.799C122.157 912.418 122.977 909.36 121.596 906.969C120.215 904.578 117.157 903.758 114.766 905.139C112.375 906.52 111.555 909.578 112.936 911.969C114.317 914.36 117.375 915.18 119.766 913.799Z" fill="#F2F2F2"/>
<path d="M595.923 1188.53C598.314 1187.15 599.134 1184.09 597.753 1181.7C596.372 1179.31 593.314 1178.49 590.923 1179.87C588.531 1181.25 587.712 1184.31 589.093 1186.7C590.474 1189.09 593.531 1189.91 595.923 1188.53Z" fill="#F2F2F2"/>
<path d="M596.08 638.799C598.471 637.418 599.291 634.36 597.91 631.969C596.529 629.578 593.471 628.758 591.08 630.139C588.689 631.52 587.869 634.578 589.25 636.969C590.631 639.36 593.689 640.18 596.08 638.799Z" fill="#F2F2F2"/>
<path d="M722.121 76.7V333.09L500.076 204.89L722.121 76.7Z" stroke="#EBEBEB"/>
<path d="M1965.09 749.092V492.697L2187.14 620.895L1965.09 749.092Z" stroke="#EBEBEB"/>
<path d="M1609.15 611.94L1133.4 886.615V337.27L1609.15 611.94Z" stroke="#EBEBEB"/>
<path d="M1130.77 340.84C1133.16 342.221 1136.22 341.401 1137.6 339.01C1138.98 336.619 1138.16 333.561 1135.77 332.18C1133.38 330.799 1130.32 331.619 1128.94 334.01C1127.56 336.401 1128.38 339.459 1130.77 340.84Z" fill="#F2F2F2"/>
<path d="M1130.92 890.572C1133.31 891.953 1136.37 891.133 1137.75 888.742C1139.13 886.351 1138.31 883.293 1135.92 881.912C1133.53 880.531 1130.47 881.351 1129.09 883.742C1127.71 886.133 1128.53 889.191 1130.92 890.572Z" fill="#F2F2F2"/>
<path d="M1607.08 615.844C1609.47 617.225 1612.53 616.405 1613.91 614.014C1615.29 611.623 1614.47 608.565 1612.08 607.184C1609.69 605.803 1606.63 606.623 1605.25 609.014C1603.87 611.405 1604.69 614.463 1607.08 615.844Z" fill="#F2F2F2"/>
</g>
<defs>
<clipPath id="clip0">
<rect width="1348" height="2243" fill="white" transform="translate(0.5 1348.5) rotate(-90)"/>
</clipPath>
</defs>
</svg>
