<svg width="2244" height="1349" fill="none" xmlns="http://www.w3.org/2000/svg"><g clip-path="url(#clip0)"><path d="M593.735 635.053V1184.4L117.984 909.728l475.751-274.675z" stroke="#EBEBEB"/><path d="M119.766 913.799a5 5 0 10-5-8.66 5 5 0 005 8.66zm476.157 274.731a5 5 0 10-5-8.66 5 5 0 005 8.66zm.157-549.731a5 5 0 10-5-8.66 5 5 0 005 8.66z" fill="#F2F2F2"/><path d="M722.121 76.7v256.39l-222.045-128.2L722.121 76.7zM1965.09 749.092V492.697l222.05 128.198-222.05 128.197zM1609.15 611.94L1133.4 886.615V337.27l475.75 274.67z" stroke="#EBEBEB"/><path d="M1130.77 340.84a5 5 0 105-8.66 5 5 0 00-5 8.66zm.15 549.732a5 5 0 105-8.66 5 5 0 00-5 8.66zm476.16-274.728a5 5 0 105-8.66 5 5 0 00-5 8.66z" fill="#F2F2F2"/></g><defs><clipPath id="clip0"><path fill="#fff" transform="rotate(-90 674.5 674)" d="M0 0h1348v2243H0z"/></clipPath></defs></svg>